<svg data-v-423bf9ae="" xmlns="http://www.w3.org/2000/svg" viewBox="0 0 525 90" class="iconLeft"><!----><!----><!----><g data-v-423bf9ae="" id="52c3d3ca-c367-45af-99b5-adf4873d6543" fill="#53BBAD" transform="matrix(6.355931758880615,0,0,6.355931758880615,128.39817810058594,7.372883319854736)"><path d="M5.92 2.90L6.30 3.47L1.46 6.41L6.29 9.49L5.92 10.07L0.62 6.64L0.62 6.19L5.92 2.90ZM12.25 1.20L12.99 1.20L12.99 9.34L13.13 10.56L12.42 10.64L12.28 9.90L12.28 9.90Q11.23 10.63 10.35 10.63L10.35 10.63L10.35 10.63Q9.10 10.63 8.41 9.70L8.41 9.70L8.41 9.70Q7.71 8.78 7.71 7.19L7.71 7.19L7.71 7.19Q7.71 5.60 8.48 4.68L8.48 4.68L8.48 4.68Q9.25 3.77 10.58 3.77L10.58 3.77L10.58 3.77Q11.37 3.77 12.25 4.14L12.25 4.14L12.25 1.20ZM8.51 7.17L8.51 7.17L8.51 7.17Q8.51 8.40 9.00 9.15L9.00 9.15L9.00 9.15Q9.48 9.90 10.39 9.90L10.39 9.90L10.39 9.90Q11.30 9.90 12.25 9.10L12.25 9.10L12.25 4.90L12.25 4.90Q11.96 4.76 11.45 4.63L11.45 4.63L11.45 4.63Q10.93 4.49 10.61 4.49L10.61 4.49L10.61 4.49Q9.62 4.49 9.06 5.21L9.06 5.21L9.06 5.21Q8.51 5.94 8.51 7.17ZM14.94 7.18L14.94 7.18L14.94 7.18Q14.94 5.57 15.60 4.67L15.60 4.67L15.60 4.67Q16.27 3.77 17.54 3.77L17.54 3.77L17.54 3.77Q18.82 3.77 19.44 4.61L19.44 4.61L19.44 4.61Q20.06 5.45 20.06 6.85L20.06 6.85L20.02 7.55L15.74 7.55L15.74 7.55Q15.81 8.60 16.30 9.25L16.30 9.25L16.30 9.25Q16.79 9.90 17.65 9.90L17.65 9.90L17.65 9.90Q18.51 9.90 19.67 9.49L19.67 9.49L19.88 10.19L19.88 10.19Q18.75 10.63 17.75 10.63L17.75 10.63L17.75 10.63Q16.38 10.63 15.66 9.71L15.66 9.71L15.66 9.71Q14.94 8.79 14.94 7.18ZM17.60 4.48L17.60 4.48L17.60 4.48Q15.83 4.48 15.74 6.85L15.74 6.85L19.26 6.85L19.26 6.85Q19.26 4.48 17.60 4.48ZM23.84 10.50L21.74 3.85L22.58 3.85L24.42 9.83L24.67 9.83L26.43 3.85L27.27 3.85L25.24 10.50L23.84 10.50ZM31.05 9.90L31.05 9.90L31.05 9.90Q31.57 9.90 32.18 9.57L32.18 9.57L32.18 9.57Q32.79 9.24 33.07 8.96L33.07 8.96L33.07 7.29L33.07 7.29Q32.14 7.22 31.30 7.22L31.30 7.22L31.30 7.22Q30.46 7.22 30.04 7.58L30.04 7.58L30.04 7.58Q29.62 7.94 29.62 8.54L29.62 8.54L29.62 8.54Q29.62 9.90 31.05 9.90ZM31.04 10.63L31.04 10.63L31.04 10.63Q30.02 10.63 29.43 10.10L29.43 10.10L29.43 10.10Q28.84 9.58 28.84 8.61L28.84 8.61L28.84 8.61Q28.84 7.64 29.48 7.11L29.48 7.11L29.48 7.11Q30.13 6.57 31.19 6.57L31.19 6.57L31.19 6.57Q32.26 6.57 33.07 6.65L33.07 6.65L33.07 6.65Q33.07 5.40 32.76 4.95L32.76 4.95L32.76 4.95Q32.45 4.49 31.51 4.49L31.51 4.49L31.51 4.49Q30.58 4.49 29.30 4.94L29.30 4.94L29.09 4.24L29.09 4.24Q30.39 3.77 31.44 3.77L31.44 3.77L31.44 3.77Q32.83 3.77 33.32 4.38L33.32 4.38L33.32 4.38Q33.81 5.00 33.81 6.54L33.81 6.54L33.81 9.48L33.92 10.54L33.21 10.61L33.07 9.77L33.07 9.77Q32.75 10.05 32.16 10.34L32.16 10.34L32.16 10.34Q31.57 10.63 31.04 10.63ZM35.49 3.85L36.19 3.85L36.23 4.27L36.23 4.27Q36.93 3.77 37.31 3.77L37.31 3.77L37.31 3.77Q38.23 3.77 38.58 4.37L38.58 4.37L38.58 4.37Q39.37 3.77 39.96 3.77L39.96 3.77L39.96 3.77Q40.87 3.77 41.20 4.33L41.20 4.33L41.20 4.33Q41.54 4.89 41.54 6.05L41.54 6.05L41.54 10.50L40.80 10.50L40.80 6.05L40.80 6.05Q40.80 5.25 40.63 4.87L40.63 4.87L40.63 4.87Q40.46 4.48 39.98 4.48L39.98 4.48L39.98 4.48Q39.51 4.48 38.81 4.93L38.81 4.93L38.81 4.93Q38.89 5.40 38.89 6.05L38.89 6.05L38.89 8.37L38.15 8.37L38.15 6.05L38.15 6.05Q38.15 5.25 37.98 4.87L37.98 4.87L37.98 4.87Q37.80 4.48 37.32 4.48L37.32 4.48L37.32 4.48Q36.85 4.48 36.23 4.93L36.23 4.93L36.23 10.50L35.49 10.50L35.49 3.85ZM45.35 4.55L43.72 4.55L43.72 3.85L46.09 3.85L46.09 9.80L47.71 9.80L47.71 10.50L43.61 10.50L43.61 9.80L45.35 9.80L45.35 4.55ZM45.65 2.51L45.65 2.51L45.65 2.51Q45.40 2.51 45.23 2.33L45.23 2.33L45.23 2.33Q45.05 2.16 45.05 1.88L45.05 1.88L45.05 1.88Q45.05 1.61 45.23 1.45L45.23 1.45L45.23 1.45Q45.40 1.29 45.65 1.29L45.65 1.29L45.65 1.29Q45.91 1.29 46.07 1.44L46.07 1.44L46.07 1.44Q46.23 1.60 46.23 1.88L46.23 1.88L46.23 1.88Q46.23 2.16 46.07 2.33L46.07 2.33L46.07 2.33Q45.91 2.51 45.65 2.51ZM51.59 4.55L50.27 4.55L50.27 3.85L52.33 3.85L52.36 4.66L52.36 4.66Q52.81 4.38 53.62 4.10L53.62 4.10L53.62 4.10Q54.43 3.82 55.05 3.77L55.05 3.77L55.05 4.59L55.05 4.59Q54.47 4.63 53.63 4.87L53.63 4.87L53.63 4.87Q52.78 5.11 52.36 5.36L52.36 5.36L52.36 9.80L54.60 9.80L54.60 10.50L50.27 10.50L50.27 9.80L51.59 9.80L51.59 4.55ZM56.63 9.49L61.46 6.41L56.62 3.47L56.99 2.90L62.30 6.19L62.30 6.64L56.99 10.07L56.63 9.49Z"></path></g><!----><g data-v-423bf9ae="" id="42e30c5d-ae68-43b3-8cb0-2cd60eee3984" transform="matrix(1.1825144290924072,0,0,1.1825144290924072,-1.5623888969421387,-14.223026275634766)" stroke="none" fill="#53BBAD"><circle cx="49.651" cy="72.829" r="1.847"></circle><path d="M6.159 65.021h86.985V15.996H6.159v49.025zm50.427-18.135l11.51-4.933v-.062l-11.51-4.932V33.67l14.891 6.825v2.854l-14.891 6.825v-3.288zm-4.934-17.962h3.133l-6.639 22.49h-3.133l6.639-22.49zM27.825 43.256v-2.668l14.89-6.918v3.289l-11.26 4.932v.062l11.26 4.933v3.288l-14.89-6.918z"></path><path d="M94.318 12.18H5.063c-1.563 0-2.91 1.188-2.91 2.752v59.606c0 1.563 1.347 2.877 2.91 2.877h35.146c-.041.896-.321 4.753-2.155 6.623-1.445 1.474-3.453 2.854-2.669 3.563.19.436 1.091.688 3.14.688h23.122c2.334 0 3.15-.382 3.158-.953h-.08v-.188h-.082c-.104-.771-1.662-1.907-2.84-3.105-1.834-1.87-2.113-5.727-2.154-6.623h34.674c1.564 0 2.83-1.313 2.83-2.877V14.934c-.003-1.566-1.27-2.754-2.835-2.754zM49.651 74.676c-1.021 0-1.847-.824-1.847-1.846a1.846 1.846 0 1 1 3.694 0 1.844 1.844 0 0 1-1.847 1.846zm43.494-9.655H6.159V15.996h86.985v49.025z"></path><path d="M42.715 46.886l-11.26-4.933v-.062l11.26-4.932V33.67l-14.89 6.918v2.669l14.89 6.917zM48.146 51.414l6.639-22.49h-3.133l-6.639 22.49h.001zM71.477 40.495L56.586 33.67v3.289l11.51 4.932v.062l-11.51 4.933v3.288l14.891-6.825z"></path></g><!----></svg>